<svg width="181" height="119" viewBox="0 0 181 119" fill="none" xmlns="http://www.w3.org/2000/svg">
<g clip-path="url(#clip0_31_1056)">
<path d="M132.406 38.688C132.406 44.8498 131.322 50.5401 129.159 55.7659C126.996 60.9916 123.985 65.5237 120.121 69.3555C116.263 73.194 111.638 76.184 106.262 78.3322C100.885 80.4804 94.9724 81.5579 88.5447 81.5579C82.1169 81.5579 76.3808 80.4804 70.9973 78.3322C65.6137 76.184 60.9963 73.194 57.1383 69.3555C53.2803 65.5237 50.2631 60.9916 48.1002 55.7659C45.9373 50.5401 44.8524 44.8498 44.8524 38.688M57.4841 38.688C57.4841 43.2201 58.2164 47.4896 59.6742 51.4964C61.1387 55.5033 63.2135 58.9848 65.9053 61.9479C68.597 64.9109 71.838 67.2342 75.6418 68.9178C79.4387 70.6081 83.7374 71.4498 88.5379 71.4498C93.3383 71.4498 97.6642 70.6081 101.522 68.9178C105.38 67.2342 108.655 64.9109 111.347 61.9479C114.039 58.9848 116.113 55.5033 117.578 51.4964C119.042 47.4896 119.768 43.2201 119.768 38.688M143.336 39.6442H33.7734V35.6374H143.336V39.6442ZM65.0916 35.7721C65.0916 22.7953 75.6824 12.2764 88.7481 12.2764C101.814 12.2764 112.405 22.7953 112.405 35.7721M72.9364 21.0174L71.4719 22.4181L62.054 12.7074L63.5186 11.3067L72.9364 21.0174ZM80.3541 15.1856L78.5302 16.0678L72.5703 3.95297L74.3942 3.07079L80.3541 15.1856ZM89.8465 13.4953L87.8192 13.4819L87.9209 0L89.9482 0.0134684L89.8465 13.4953ZM99.305 16.7143L97.5421 15.7176L104.275 4.00685L106.038 5.00351L99.305 16.7143ZM107.462 23.3609L106.072 21.8929L115.978 12.6738L117.368 14.1418L107.462 23.3609Z" fill="white"/>
<path d="M1.7222 108.75C2.03409 108.083 2.54939 107.551 3.2681 107.161C3.98681 106.77 4.75977 106.575 5.58018 106.575C7.03795 106.575 8.12957 107.006 8.86185 107.868C9.58734 108.73 9.95347 109.868 9.95347 111.282V118.286H8.28552V111.962C8.28552 111.363 8.23806 110.817 8.13635 110.326C8.04143 109.841 7.87192 109.417 7.63461 109.067C7.3973 108.716 7.07863 108.447 6.67859 108.252C6.27855 108.056 5.77003 107.962 5.16658 107.962C4.72587 107.962 4.29193 108.05 3.87833 108.232C3.45795 108.413 3.08503 108.683 2.75958 109.046C2.43413 109.41 2.16969 109.875 1.97307 110.44C1.77644 110.999 1.68151 111.666 1.68151 112.427V118.286H0V99.834H1.66795V108.743H1.71541L1.7222 108.75Z" fill="white"/>
<path d="M40.4432 112.286C40.4432 113.148 40.2941 113.943 39.989 114.677C39.6838 115.411 39.2635 116.044 38.721 116.582C38.1786 117.121 37.5345 117.539 36.7819 117.842C36.0293 118.145 35.2021 118.293 34.3003 118.293C33.3985 118.293 32.5984 118.145 31.8458 117.842C31.0932 117.539 30.4423 117.121 29.9067 116.582C29.3642 116.044 28.9439 115.411 28.6387 114.677C28.3336 113.943 28.1845 113.148 28.1845 112.286M29.9541 112.286C29.9541 112.919 30.0558 113.518 30.2592 114.077C30.4626 114.636 30.7542 115.128 31.1339 115.539C31.5136 115.956 31.9679 116.279 32.4967 116.515C33.0256 116.751 33.629 116.872 34.3003 116.872C34.9715 116.872 35.575 116.758 36.1174 116.515C36.6598 116.279 37.1141 115.956 37.4938 115.539C37.8735 115.121 38.1583 114.636 38.3685 114.077C38.5719 113.518 38.6736 112.919 38.6736 112.286M42.1112 112.421H26.625V111.862H42.1112V112.421ZM30.8491 111.862C30.8491 110.044 32.334 108.569 34.1647 108.569C35.9954 108.569 37.4803 110.044 37.4803 111.862M31.9543 109.794L31.7509 109.99L30.4287 108.629L30.6322 108.434L31.9543 109.794ZM32.9917 108.98L32.734 109.101L31.9001 107.404L32.1577 107.283L32.9917 108.98ZM34.3206 108.744H34.0359L34.0494 106.852H34.3342L34.3206 108.744ZM35.6428 109.195L35.3987 109.054L36.3412 107.411L36.5853 107.552L35.6428 109.195ZM36.7887 110.124L36.592 109.916L37.982 108.623L38.1786 108.831L36.7887 110.124Z" fill="white"/>
<path d="M62.3793 108.171C62.3657 107.686 62.3386 107.242 62.3047 106.851H63.9048C63.9387 107.161 63.9591 107.504 63.9794 107.875C63.993 108.252 64.0065 108.555 64.0065 108.804H64.054C64.3795 108.137 64.8744 107.599 65.5253 107.181C66.183 106.764 66.9153 106.562 67.7357 106.562C67.9459 106.562 68.1425 106.568 68.312 106.588C68.4815 106.602 68.6578 106.636 68.8409 106.689L68.6171 108.279C68.5222 108.245 68.3527 108.211 68.129 108.178C67.8984 108.144 67.6679 108.131 67.4442 108.131C67.0034 108.131 66.5763 108.211 66.1695 108.373C65.7626 108.535 65.4033 108.791 65.0982 109.141C64.7931 109.491 64.549 109.935 64.3591 110.481C64.1693 111.026 64.0743 111.68 64.0743 112.44V118.286H62.4064V109.376C62.4064 109.067 62.3996 108.669 62.3793 108.178V108.171Z" fill="white"/>
<path d="M88.5588 102.891C88.5588 103.235 88.4367 103.511 88.1926 103.733C87.9485 103.955 87.6773 104.063 87.379 104.063C87.0807 104.063 86.8162 103.955 86.5654 103.733C86.3213 103.511 86.1992 103.235 86.1992 102.891C86.1992 102.548 86.3213 102.272 86.5654 102.05C86.8094 101.827 87.0807 101.72 87.379 101.72C87.6773 101.72 87.9418 101.827 88.1926 102.05C88.4435 102.272 88.5588 102.548 88.5588 102.891ZM88.213 118.71H86.545V107.289H88.213V118.71Z" fill="white"/>
<path d="M117.85 107.882L110.968 116.69H118.094V118.131H108.758V116.959L115.613 108.097H109.104V106.703H117.85V107.875V107.882Z" fill="white"/>
<path d="M148.849 113C148.849 113.862 148.699 114.657 148.394 115.391C148.089 116.125 147.669 116.758 147.126 117.296C146.584 117.835 145.94 118.253 145.187 118.556C144.435 118.859 143.607 119.007 142.706 119.007C141.804 119.007 141.004 118.859 140.251 118.556C139.499 118.253 138.848 117.835 138.312 117.296C137.77 116.758 137.349 116.125 137.044 115.391C136.739 114.657 136.59 113.862 136.59 113C136.59 112.138 136.739 111.343 137.044 110.609C137.349 109.875 137.77 109.242 138.312 108.704C138.854 108.165 139.499 107.747 140.251 107.444C141.004 107.141 141.824 106.993 142.706 106.993C143.587 106.993 144.435 107.141 145.187 107.444C145.94 107.747 146.591 108.165 147.126 108.704C147.662 109.242 148.089 109.875 148.394 110.609C148.699 111.343 148.849 112.138 148.849 113ZM147.079 113C147.079 112.367 146.977 111.768 146.774 111.209C146.57 110.65 146.279 110.158 145.899 109.747C145.519 109.33 145.065 109 144.523 108.758C143.98 108.515 143.377 108.394 142.706 108.394C142.034 108.394 141.431 108.515 140.902 108.758C140.366 109 139.912 109.33 139.539 109.747C139.16 110.165 138.875 110.65 138.665 111.209C138.461 111.768 138.36 112.367 138.36 113C138.36 113.633 138.461 114.232 138.665 114.791C138.868 115.35 139.16 115.842 139.539 116.253C139.919 116.67 140.373 116.993 140.902 117.229C141.431 117.465 142.034 117.586 142.706 117.586C143.377 117.586 143.98 117.472 144.523 117.229C145.065 116.993 145.519 116.67 145.899 116.253C146.279 115.835 146.564 115.35 146.774 114.791C146.977 114.232 147.079 113.633 147.079 113Z" fill="white"/>
<path d="M172.544 106.858C172.578 107.168 172.598 107.511 172.618 107.882C172.632 108.259 172.645 108.562 172.645 108.811H172.693C173.018 108.144 173.554 107.605 174.293 107.188C175.032 106.77 175.805 106.568 176.625 106.568C178.083 106.568 179.175 106.999 179.907 107.861C180.633 108.723 180.999 109.861 180.999 111.276V118.279H179.331V111.956C179.331 111.356 179.283 110.811 179.182 110.319C179.087 109.834 178.917 109.41 178.68 109.06C178.442 108.71 178.124 108.44 177.724 108.245C177.324 108.05 176.815 107.956 176.212 107.956C175.771 107.956 175.337 108.043 174.923 108.225C174.503 108.407 174.13 108.676 173.805 109.04C173.479 109.403 173.215 109.868 173.018 110.434C172.822 110.993 172.727 111.659 172.727 112.42V118.279H171.059V109.37C171.059 109.06 171.052 108.663 171.032 108.171C171.018 107.686 170.991 107.242 170.957 106.851H172.557L172.544 106.858Z" fill="white"/>
</g>
<defs>
<clipPath id="clip0_31_1056">
<rect width="181" height="119" fill="white"/>
</clipPath>
</defs>
</svg>
