<svg width="872" height="367" viewBox="0 0 872 367" fill="none" xmlns="http://www.w3.org/2000/svg">
<g opacity="0.8">
<mask id="mask0_357_236" style="mask-type:luminance" maskUnits="userSpaceOnUse" x="0" y="0" width="872" height="367">
<path d="M872 0.927734H0V366.071H872V0.927734Z" fill="white"/>
</mask>
<g mask="url(#mask0_357_236)">
<mask id="mask1_357_236" style="mask-type:alpha" maskUnits="userSpaceOnUse" x="-1" y="0" width="873" height="367">
<path d="M871.999 0.926758H-0.572266V366.07H871.999V0.926758Z" fill="url(#paint0_radial_357_236)"/>
</mask>
<g mask="url(#mask1_357_236)">
<g opacity="0.5">
<g filter="url(#filter0_f_357_236)">
<path d="M-1.14258 128.906L130.317 108.245M130.317 108.245L190.57 36.4149M130.317 108.245L213.48 145.276M130.317 108.245L105.723 192.51M190.57 36.4149L368.642 76.0539M190.57 36.4149L213.48 145.276M190.57 36.4149L105.723 192.51M190.57 36.4149L426.102 197.547M213.48 145.276L368.642 76.0539M213.48 145.276L98.8489 313.889M213.48 145.276L105.723 192.51M213.48 145.276L237.182 173.526M105.723 192.51L98.8489 313.889M105.723 192.51L237.182 239.533M105.723 192.51L-1.14258 180.074M105.723 192.51L-1.14258 201.607M368.642 76.0539L485.066 108.245M368.642 76.0539L389.156 169.388M426.102 197.547L535.759 272.566L574.103 231.308L589.137 192.51M426.102 197.547L308.389 184.22L237.182 173.526M485.066 108.245L657.555 52.0892L697.292 98.335M485.066 108.245L589.137 192.51M485.066 108.245L405.588 266.801M485.066 108.245L697.292 98.335M485.066 108.245L415.147 145.276M389.156 169.388L589.137 192.51M389.156 169.388L405.588 266.801M389.156 169.388L237.182 173.526M697.292 98.335L784.932 26.5052M697.292 98.335L589.137 192.51M697.292 98.335L706.852 174.31M589.137 192.51L717.806 207.342M589.137 192.51L717.806 231.308M589.137 192.51L706.852 174.31M589.137 192.51L450.804 355.212M589.137 192.51L405.588 266.801M405.588 266.801L450.804 355.212M405.588 266.801L98.8489 313.889M405.588 266.801L368.642 231.308L249.426 238.767L237.182 239.533M405.588 266.801L237.182 239.533M405.588 266.801L168.66 163.558L8.41617 285.779M415.147 145.276L237.182 239.533M415.147 145.276L524.804 192.51M784.932 26.5052L872.572 44.6407V29.355M784.932 26.5052L872.572 14.0693V29.355M784.932 26.5052L757.543 108.245M706.852 174.31L717.806 207.342M706.852 174.31L732.949 201.607M872.572 29.355L813.715 52.0892L667.217 108.245L589.137 114.851L524.804 192.51M757.543 108.245L872.572 124.761V148.726L732.949 201.607M757.543 108.245L717.806 207.342M732.949 201.607L717.806 207.342M717.806 207.342V231.308M717.806 207.342L837.023 231.308M717.806 231.308H837.023M837.023 231.308L872.572 192.51V220.556L837.023 231.308ZM450.804 355.212L98.8489 313.889M450.804 355.212L237.182 239.533M98.8489 313.889L237.182 239.533M98.8489 313.889L-1.14258 319.653M98.8489 313.889L17.975 272.566M589.137 180.074L524.804 192.51" stroke="#99306F" stroke-width="2"/>
</g>
<path d="M56.6672 247.426L-10.8574 261.363L3.27312 282.527M56.6672 247.426L64.11 203.292M56.6672 247.426L118.691 217.809M56.6672 247.426L94.3129 288.528M56.6672 247.426L195.384 279.108M56.6672 247.426L3.27312 282.527M3.27312 282.527L94.3129 288.528M64.11 203.292L162.376 162.125M64.11 203.292L118.691 217.809M118.691 217.809L162.376 162.125M118.691 217.809L232.382 162.125M118.691 217.809L246.297 238.844M118.691 217.809L232.382 176.127M118.691 217.809L94.3129 288.528M118.691 217.809L195.384 279.108M94.3129 288.528L195.384 279.108M195.384 279.108L246.297 238.844M195.384 279.108L232.382 176.127M162.376 162.125H232.382M162.376 162.125L232.382 176.127M232.382 162.125L306.163 182.708M232.382 162.125V176.127M232.382 162.125L261.039 144.445L306.163 182.708M232.382 176.127L306.163 182.708M232.382 176.127L246.297 238.844M306.163 182.708L384.798 91.6003M306.163 182.708L366.784 231.94M306.163 182.708L246.297 238.844M306.163 182.708L411.98 144.445M384.798 91.6003L585 115.861M384.798 91.6003L504.422 157.351M384.798 91.6003L411.98 144.445M366.784 231.94L411.98 144.445M366.784 231.94L432.043 250.846M366.784 231.94L269.272 264.525M366.784 231.94L364 277.498M246.297 238.844L269.272 264.525M411.98 144.445L585 115.861M411.98 144.445L504.422 157.351M411.98 144.445L422.012 197.613M585 115.861L666.114 109.989M585 115.861V182.708M585 115.861L504.422 157.351M585 115.861L704.194 172.449M504.422 157.351L585 182.708M504.422 157.351L525.24 194.193M504.422 157.351L422.012 197.613M666.114 109.989L759.525 86.4381M666.114 109.989L704.194 172.449M666.114 109.989L585 182.708M666.114 109.989L766.863 136.444M666.114 109.989L699.445 56.0473M585 182.708L704.194 172.449M585 182.708L730.08 203.292M585 182.708L571.084 231.94M585 182.708L535.272 272.72M704.194 172.449L759.525 86.4381M704.194 172.449L766.863 136.444M704.194 172.449L730.08 203.292M704.194 172.449L766.863 176.127M759.525 86.4381L812.383 48.9497M759.525 86.4381L766.863 136.444M759.525 86.4381L863.943 140.832M759.525 86.4381L699.445 56.0473M766.863 136.444L812.383 48.9497M766.863 136.444L863.943 140.832M766.863 136.444V176.127M766.863 136.444L877.143 211.228M699.445 56.0473L812.383 48.9497M699.445 56.0473L836.977 7.7832M812.383 48.9497L836.977 7.7832M812.383 48.9497L863.943 140.832M812.383 48.9497L877.143 31.9798M812.383 48.9497L877.143 56.0473M812.383 48.9497L877.143 91.6003M863.943 140.832L836.977 183.99M863.943 140.832L766.863 176.127M836.977 7.7832L877.143 12.9451V31.9798M836.977 7.7832L877.143 31.9798M877.143 31.9798V56.0473M877.143 56.0473V91.6003M877.143 91.6003V194.193M877.143 261.363L836.977 183.99M877.143 261.363V211.228M877.143 261.363H863.943M836.977 183.99L877.143 194.193M836.977 183.99L877.143 211.228M836.977 183.99L766.863 176.127M836.977 183.99L721.451 247.426M877.143 211.228V194.193M863.943 261.363L721.451 247.426M863.943 261.363L766.863 176.127M766.863 176.127L721.451 247.426M721.451 247.426L730.08 203.292M730.08 203.292L571.084 231.94M730.08 203.292L634.571 270.355L571.084 231.94M571.084 231.94L535.272 272.72M571.084 231.94L525.24 194.193M535.272 272.72L525.24 194.193M535.272 272.72L432.043 250.846M525.24 194.193L422.012 197.613M525.24 194.193L432.043 250.846M432.043 250.846L422.012 197.613M432.043 250.846L364 277.498M269.272 264.525L364 277.498" stroke="url(#paint1_linear_357_236)" stroke-width="2"/>
</g>
<mask id="mask2_357_236" style="mask-type:luminance" maskUnits="userSpaceOnUse" x="518" y="254" width="33" height="33">
<path d="M550.856 254.069H518.856V286.069H550.856V254.069Z" fill="white"/>
</mask>
<g mask="url(#mask2_357_236)">
<mask id="mask3_357_236" style="mask-type:luminance" maskUnits="userSpaceOnUse" x="518" y="254" width="33" height="33">
<path d="M550.856 254.069H518.856V286.069H550.856V254.069Z" fill="white"/>
</mask>
<g mask="url(#mask3_357_236)">
<path d="M550.154 267.763L537.163 254.772L536.68 254.29L536.147 254.069H533.566L533.032 254.29L532.55 254.772L519.559 267.763L519.078 268.245L518.856 268.779V271.36L519.078 271.893L519.559 272.376L532.55 285.366L533.032 285.848L533.566 286.069H536.147L536.68 285.848L537.163 285.366L550.154 272.376L550.635 271.893L550.856 271.36V268.779L550.635 268.245L550.154 267.763Z" fill="#014847"/>
<path d="M533.698 283.073V276.833L533.864 276.667H535.85L536.015 276.833V283.073L535.85 283.239H533.864L533.698 283.073Z" fill="#32E6E2"/>
<path d="M533.698 263.306V257.065L533.864 256.899H535.85L536.015 257.065V263.306L535.85 263.471H533.864L533.698 263.306Z" fill="#32E6E2"/>
<path d="M528.454 278.45H528.18L526.815 277.086V276.812L528.634 274.993L530.078 274.994L530.271 275.186V276.631L528.454 278.45Z" fill="#32E6E2"/>
<path d="M526.815 263.396V263.123L528.18 261.758H528.453L530.271 263.577V265.02L530.079 265.214H528.635L526.815 263.396Z" fill="#32E6E2"/>
<path d="M521.322 268.908H528.341L528.507 269.074V271.062L528.341 271.227H521.322L521.156 271.062V269.074L521.322 268.908Z" fill="#32E6E2"/>
<path d="M538.577 274.203H536.592L536.427 274.037V269.392C536.428 268.565 536.103 267.925 535.105 267.904C534.592 267.89 534.004 267.904 533.377 267.929L533.283 268.026L533.284 274.037L533.118 274.203H531.133L530.968 274.037V266.1L531.133 265.935H535.599C537.334 265.935 538.74 267.341 538.74 269.076V274.037L538.575 274.203H538.577Z" fill="white"/>
<path d="M548.392 271.23H541.373L541.207 271.064V269.076L541.373 268.911H548.392L548.557 269.076V271.064L548.392 271.23Z" fill="#32E6E2"/>
</g>
</g>
<path d="M402.745 92.9018C402.745 90.7806 400.099 88.7703 396.043 87.5235C396.979 83.3726 396.563 80.0698 394.731 79.0126C394.308 78.7646 393.814 78.6469 393.275 78.6469V80.1029C393.574 80.1029 393.814 80.1612 394.015 80.2721C394.899 80.7812 395.283 82.7201 394.984 85.2132C394.912 85.8269 394.795 86.4726 394.652 87.1321C393.379 86.8189 391.988 86.5772 390.525 86.4206C389.648 85.2132 388.738 84.1166 387.821 83.1572C389.94 81.1795 391.929 80.0961 393.281 80.0961V78.6406C391.494 78.6406 389.154 79.9201 386.788 82.1389C384.422 79.9332 382.082 78.6669 380.294 78.6669V80.1223C381.64 80.1223 383.635 81.1989 385.754 83.1635C384.844 84.1229 383.934 85.2132 383.07 86.4206C381.601 86.5772 380.21 86.8189 378.936 87.1383C378.786 86.4858 378.676 85.8526 378.598 85.2458C378.292 82.7526 378.67 80.8143 379.547 80.2983C379.742 80.1812 379.995 80.1286 380.294 80.1286V78.6732C379.748 78.6732 379.254 78.7909 378.826 79.0389C376.999 80.0961 376.59 83.3921 377.532 87.5303C373.489 88.7835 370.856 90.7869 370.856 92.9018C370.856 95.0229 373.502 97.0332 377.558 98.2801C376.622 102.431 377.038 105.733 378.871 106.791C379.294 107.039 379.787 107.156 380.333 107.156C382.121 107.156 384.461 105.877 386.827 103.658C389.192 105.864 391.532 107.13 393.32 107.13C393.866 107.13 394.36 107.013 394.789 106.765C396.615 105.707 397.025 102.411 396.083 98.2732C400.112 97.0269 402.745 95.0166 402.745 92.9018ZM394.282 88.5481C394.042 89.3903 393.743 90.2583 393.404 91.1263C393.138 90.6041 392.859 90.0823 392.553 89.56C392.254 89.0378 391.936 88.5286 391.617 88.0326C392.54 88.1698 393.431 88.3395 394.282 88.5481ZM391.305 95.4995C390.798 96.3806 390.278 97.2161 389.739 97.9926C388.77 98.0778 387.788 98.1229 386.8 98.1229C385.819 98.1229 384.838 98.0778 383.876 97.9989C383.336 97.2223 382.81 96.3938 382.303 95.5189C381.809 94.6641 381.36 93.7961 380.951 92.9212C381.354 92.0469 381.809 91.1721 382.296 90.3172C382.803 89.4361 383.323 88.6006 383.863 87.8241C384.831 87.7389 385.812 87.6932 386.8 87.6932C387.782 87.6932 388.764 87.7389 389.726 87.8172C390.265 88.5938 390.792 89.4229 391.299 90.2978C391.792 91.1526 392.241 92.0206 392.651 92.8955C392.241 93.7698 391.792 94.6446 391.305 95.4995ZM393.404 94.6509C393.755 95.5258 394.055 96.4 394.302 97.2486C393.45 97.4572 392.553 97.6338 391.624 97.7709C391.942 97.2681 392.26 96.7526 392.56 96.2241C392.859 95.7018 393.138 95.1732 393.404 94.6509ZM386.814 101.615C386.209 100.989 385.604 100.29 385.007 99.5263C385.592 99.5526 386.19 99.5721 386.794 99.5721C387.405 99.5721 388.01 99.5589 388.601 99.5263C388.016 100.29 387.412 100.989 386.814 101.615ZM381.978 97.7709C381.055 97.6338 380.164 97.4641 379.313 97.2549C379.554 96.4132 379.852 95.5452 380.19 94.6772C380.457 95.1989 380.736 95.7212 381.042 96.2435C381.347 96.7658 381.659 97.2749 381.978 97.7709ZM386.781 84.1886C387.386 84.8149 387.99 85.5132 388.588 86.2772C388.003 86.2509 387.405 86.2315 386.8 86.2315C386.19 86.2315 385.585 86.2446 384.994 86.2772C385.579 85.5132 386.183 84.8149 386.781 84.1886ZM381.971 88.0326C381.653 88.5355 381.334 89.0509 381.035 89.5795C380.736 90.1018 380.457 90.6241 380.19 91.1458C379.839 90.2715 379.54 89.3966 379.294 88.5481C380.145 88.3458 381.042 88.1698 381.971 88.0326ZM376.089 96.204C373.788 95.2189 372.299 93.9263 372.299 92.9018C372.299 91.8772 373.788 90.5783 376.089 89.5989C376.648 89.3578 377.259 89.1423 377.89 88.9401C378.26 90.2195 378.747 91.5509 379.352 92.9149C378.754 94.2726 378.273 95.5972 377.909 96.8698C377.266 96.6675 376.654 96.4458 376.089 96.204ZM379.586 105.531C378.702 105.022 378.318 103.083 378.618 100.59C378.689 99.9766 378.806 99.3309 378.949 98.6715C380.223 98.9846 381.614 99.2263 383.076 99.3829C383.954 100.59 384.864 101.687 385.78 102.646C383.661 104.624 381.672 105.707 380.32 105.707C380.028 105.701 379.781 105.642 379.586 105.531ZM395.003 100.558C395.309 103.051 394.932 104.989 394.055 105.505C393.859 105.622 393.606 105.675 393.307 105.675C391.962 105.675 389.966 104.598 387.847 102.633C388.757 101.674 389.667 100.584 390.532 99.3761C392 99.2195 393.392 98.9783 394.666 98.6583C394.815 99.3178 394.932 99.9509 395.003 100.558ZM397.506 96.204C396.947 96.4458 396.336 96.6612 395.706 96.8635C395.335 95.5841 394.847 94.2526 394.243 92.8886C394.841 91.5309 395.322 90.2063 395.686 88.9332C396.33 89.1355 396.94 89.3578 397.512 89.5989C399.814 90.5846 401.302 91.8772 401.302 92.9018C401.295 93.9263 399.807 95.2252 397.506 96.204Z" fill="#61DAFB"/>
<path d="M386.801 95.868C388.433 95.868 389.756 94.5388 389.756 92.8988C389.756 91.2594 388.433 89.9297 386.801 89.9297C385.169 89.9297 383.846 91.2594 383.846 92.8988C383.846 94.5388 385.169 95.868 386.801 95.868Z" fill="#61DAFB"/>
<mask id="mask4_357_236" style="mask-type:luminance" maskUnits="userSpaceOnUse" x="394" y="126" width="33" height="33">
<path d="M426.856 126.641H394.856V158.641H426.856V126.641Z" fill="white"/>
</mask>
<g mask="url(#mask4_357_236)">
<path d="M409.808 126.649C409.74 126.656 409.521 126.677 409.324 126.693C404.778 127.103 400.521 129.554 397.825 133.324C396.335 135.392 395.366 137.79 395 140.314C394.872 141.193 394.856 141.452 394.856 142.644C394.856 143.836 394.872 144.096 395 144.974C395.87 150.982 400.146 156.03 405.945 157.901C406.984 158.235 408.078 158.464 409.324 158.601C409.808 158.654 411.904 158.654 412.389 158.601C414.538 158.364 416.358 157.832 418.154 156.915C418.429 156.775 418.482 156.737 418.445 156.705C418.42 156.687 417.247 155.113 415.839 153.212L413.28 149.756L410.074 145.012C408.31 142.403 406.858 140.27 406.846 140.27C406.834 140.267 406.821 142.375 406.815 144.949C406.806 149.456 406.802 149.637 406.746 149.744C406.665 149.897 406.603 149.96 406.471 150.028C406.371 150.078 406.283 150.088 405.811 150.088H405.27L405.126 149.997C405.037 149.941 404.964 149.862 404.916 149.769L404.85 149.628L404.857 143.357L404.866 137.084L404.963 136.961C405.013 136.896 405.12 136.811 405.194 136.77C405.323 136.708 405.373 136.701 405.914 136.701C406.552 136.701 406.658 136.727 406.824 136.908C406.871 136.958 408.607 139.573 410.684 142.722C412.762 145.872 415.602 150.172 416.997 152.284L419.531 156.121L419.658 156.036C420.794 155.298 421.995 154.248 422.946 153.153C424.963 150.846 426.271 148.006 426.713 144.974C426.841 144.095 426.856 143.836 426.856 142.644C426.856 141.452 426.841 141.193 426.712 140.314C425.843 134.305 421.567 129.258 415.768 127.388C414.744 127.056 413.656 126.828 412.436 126.69C412.136 126.659 410.068 126.624 409.808 126.649ZM416.358 136.326C416.433 136.364 416.499 136.416 416.554 136.479C416.608 136.542 416.649 136.616 416.675 136.696C416.7 136.777 416.706 138.516 416.7 142.434L416.69 148.058L415.698 146.538L414.704 145.018V140.93C414.704 138.288 414.716 136.801 414.735 136.73C414.758 136.647 414.796 136.569 414.85 136.501C414.903 136.433 414.97 136.377 415.045 136.336C415.173 136.27 415.22 136.264 415.712 136.264C416.174 136.264 416.256 136.27 416.358 136.326Z" fill="white"/>
</g>
<path d="M264.266 131.212L260.571 137.546L256.876 131.212H244.571L260.571 158.64L276.571 131.212H264.266Z" fill="#41B883"/>
<path d="M264.266 131.212L260.571 137.546L256.876 131.212H250.971L260.571 147.669L270.171 131.212H264.266Z" fill="#34495E"/>
<path d="M489.091 113.251L487.996 115.16L484.25 108.629L472.753 128.674H480.537C480.537 129.728 481.386 130.583 482.434 130.583H472.753C472.076 130.583 471.45 130.219 471.111 129.628C470.773 129.037 470.773 128.31 471.112 127.719L482.608 107.675C482.947 107.084 483.573 106.72 484.25 106.72C484.928 106.72 485.555 107.084 485.893 107.675L489.091 113.251Z" fill="#00C58E"/>
<path d="M497.39 127.72L490.185 115.16L489.09 113.251L487.995 115.16L480.791 127.72C480.452 128.31 480.452 129.038 480.791 129.629C481.13 130.22 481.756 130.584 482.433 130.584H495.745C496.423 130.584 497.049 130.22 497.388 129.629C497.727 129.038 497.727 128.311 497.388 127.72H497.39ZM482.433 128.674L489.09 117.069L495.745 128.674H482.433Z" fill="#2F495E"/>
<path d="M482.434 128.674L489.091 117.068L495.746 128.674H482.434Z" fill="#111111"/>
<path d="M502.54 129.629C502.201 130.219 501.576 130.583 500.898 130.583H495.745C496.793 130.583 497.641 129.728 497.641 128.674H500.894L491.664 112.58L490.185 115.159L489.09 113.251L490.022 111.626C490.361 111.035 490.987 110.671 491.665 110.671C492.342 110.671 492.968 111.035 493.307 111.626L502.54 127.719C502.879 128.31 502.879 129.038 502.54 129.629Z" fill="#108775"/>
<mask id="mask5_357_236" style="mask-type:luminance" maskUnits="userSpaceOnUse" x="570" y="100" width="33" height="33">
<path d="M602.856 100.354H570.856V132.354H602.856V100.354Z" fill="white"/>
</mask>
<g mask="url(#mask5_357_236)">
<path fill-rule="evenodd" clip-rule="evenodd" d="M585.273 101.778C589.519 99.0754 595.387 100.335 598.359 104.587V104.61C599.062 105.597 599.564 106.715 599.833 107.899C600.096 109.082 600.124 110.307 599.913 111.501C599.707 112.642 599.273 113.728 598.633 114.695C599.564 116.47 599.879 118.504 599.525 120.475C599.307 121.644 598.856 122.755 598.193 123.738C597.524 124.722 596.662 125.557 595.662 126.19L588.21 130.918C583.964 133.621 578.096 132.361 575.124 128.11C574.422 127.123 573.919 126.005 573.65 124.822C573.382 123.638 573.353 122.413 573.57 121.218C573.776 120.078 574.21 118.991 574.844 118.024C573.913 116.249 573.604 114.214 573.959 112.241C574.17 111.073 574.622 109.961 575.29 108.977C575.953 107.993 576.816 107.159 577.822 106.527L585.273 101.778ZM580.999 128.341C582.136 128.763 583.37 128.826 584.547 128.521C585.079 128.378 585.593 128.153 586.062 127.855L593.513 123.107C594.119 122.726 594.639 122.223 595.039 121.629C595.439 121.036 595.713 120.366 595.839 119.661C595.964 118.943 595.947 118.207 595.787 117.495C595.627 116.784 595.324 116.112 594.902 115.518C594.21 114.523 593.233 113.763 592.096 113.342C590.959 112.921 589.719 112.859 588.547 113.164C588.01 113.306 587.502 113.53 587.033 113.83L584.176 115.641C584.033 115.73 583.879 115.797 583.719 115.841C583.37 115.93 582.999 115.91 582.662 115.783C582.319 115.657 582.027 115.43 581.822 115.133C581.69 114.954 581.599 114.75 581.553 114.536C581.502 114.321 581.496 114.098 581.536 113.881C581.57 113.67 581.656 113.468 581.776 113.29C581.896 113.111 582.05 112.959 582.233 112.844L589.69 108.104C589.827 108.015 589.982 107.947 590.147 107.904C590.496 107.812 590.862 107.829 591.204 107.952C591.542 108.075 591.839 108.298 592.05 108.593C592.279 108.915 592.382 109.308 592.353 109.701L592.324 109.987L592.61 110.07C593.656 110.387 594.645 110.88 595.525 111.527L595.907 111.813L596.05 111.384C596.124 111.157 596.182 110.925 596.227 110.69C596.353 109.972 596.336 109.235 596.176 108.524C596.016 107.813 595.713 107.14 595.29 106.547C594.599 105.551 593.622 104.791 592.484 104.37C591.347 103.948 590.107 103.885 588.936 104.19C588.404 104.334 587.896 104.557 587.433 104.853L579.97 109.601C579.364 109.982 578.844 110.486 578.444 111.079C578.044 111.673 577.776 112.343 577.65 113.047C577.519 113.765 577.536 114.501 577.696 115.212C577.856 115.923 578.153 116.596 578.576 117.19C579.267 118.183 580.244 118.942 581.382 119.362C582.513 119.783 583.747 119.847 584.919 119.544C585.456 119.401 585.964 119.178 586.433 118.881L589.29 117.067C589.427 116.978 589.582 116.91 589.747 116.867C590.102 116.775 590.473 116.794 590.816 116.921C591.159 117.047 591.45 117.276 591.662 117.575C591.787 117.754 591.879 117.957 591.93 118.171C591.976 118.386 591.982 118.607 591.947 118.824C591.907 119.037 591.827 119.239 591.707 119.418C591.587 119.598 591.427 119.749 591.245 119.864L583.804 124.613C583.662 124.702 583.507 124.769 583.347 124.813C582.993 124.905 582.622 124.886 582.279 124.759C581.936 124.633 581.644 124.404 581.433 124.104C581.204 123.785 581.096 123.396 581.124 123.004L581.147 122.718L580.862 122.635C579.822 122.321 578.839 121.833 577.959 121.19L577.576 120.904L577.433 121.333C577.359 121.558 577.302 121.788 577.256 122.021C577.13 122.739 577.147 123.476 577.307 124.187C577.467 124.899 577.764 125.571 578.193 126.164C578.884 127.16 579.862 127.92 580.999 128.341Z" fill="#FF3C00"/>
<path d="M580.999 128.34C582.136 128.762 583.37 128.825 584.547 128.52C585.079 128.377 585.593 128.152 586.062 127.855L593.513 123.106C594.119 122.725 594.639 122.222 595.039 121.628C595.439 121.035 595.713 120.365 595.839 119.66C595.964 118.943 595.947 118.206 595.787 117.495C595.627 116.783 595.324 116.111 594.902 115.518C594.21 114.522 593.233 113.763 592.096 113.342C590.959 112.92 589.719 112.858 588.547 113.163C588.01 113.305 587.502 113.53 587.033 113.829L584.176 115.64C584.033 115.73 583.879 115.796 583.719 115.84C583.37 115.93 582.999 115.909 582.662 115.782C582.319 115.656 582.027 115.429 581.822 115.132C581.69 114.953 581.599 114.75 581.553 114.535C581.502 114.32 581.496 114.098 581.536 113.88C581.57 113.669 581.656 113.467 581.776 113.289C581.896 113.11 582.05 112.959 582.233 112.843L589.69 108.103C589.827 108.014 589.982 107.947 590.147 107.903C590.496 107.811 590.862 107.828 591.204 107.951C591.542 108.074 591.839 108.298 592.05 108.592C592.279 108.914 592.382 109.307 592.353 109.7L592.324 109.986L592.61 110.069C593.656 110.386 594.644 110.879 595.524 111.526L595.907 111.812L596.05 111.383C596.124 111.156 596.182 110.924 596.227 110.689C596.353 109.971 596.336 109.235 596.176 108.523C596.016 107.812 595.713 107.139 595.29 106.546C594.599 105.551 593.622 104.791 592.484 104.369C591.347 103.947 590.107 103.884 588.936 104.189C588.404 104.333 587.896 104.556 587.433 104.852L579.97 109.6C579.364 109.982 578.844 110.485 578.444 111.079C578.044 111.672 577.776 112.342 577.65 113.046C577.519 113.764 577.536 114.5 577.696 115.211C577.856 115.923 578.153 116.595 578.576 117.189C579.267 118.183 580.244 118.941 581.382 119.362C582.513 119.783 583.747 119.846 584.919 119.543C585.456 119.4 585.964 119.177 586.433 118.88L589.29 117.066C589.427 116.977 589.582 116.91 589.747 116.866C590.102 116.775 590.473 116.794 590.816 116.92C591.159 117.047 591.45 117.275 591.662 117.575C591.787 117.754 591.879 117.956 591.93 118.17C591.976 118.385 591.982 118.607 591.947 118.823C591.907 119.036 591.827 119.239 591.707 119.418C591.587 119.597 591.427 119.748 591.244 119.863L583.804 124.612C583.662 124.702 583.507 124.768 583.347 124.812C582.993 124.904 582.622 124.885 582.279 124.758C581.936 124.632 581.644 124.403 581.433 124.103C581.204 123.784 581.096 123.395 581.124 123.003L581.147 122.718L580.862 122.635C579.822 122.32 578.839 121.832 577.959 121.189L577.576 120.903L577.433 121.332C577.359 121.557 577.302 121.787 577.256 122.02C577.13 122.739 577.147 123.475 577.307 124.187C577.467 124.898 577.764 125.57 578.193 126.163C578.884 127.159 579.862 127.919 580.999 128.34Z" fill="#111111"/>
</g>
<path d="M420.803 241.938L433.042 234.839L445.378 241.938V256.82L433.042 263.869L420.803 256.82V241.938Z" fill="#111111"/>
<path d="M445.335 241.081L434.311 234.68C433.616 234.284 432.711 234.284 432.01 234.68L420.868 241.081C420.151 241.494 419.643 242.27 419.643 243.099V255.885C419.643 256.715 420.164 257.491 420.881 257.906L423.825 259.578C425.232 260.271 425.729 260.271 426.369 260.271C428.453 260.271 429.643 259.011 429.643 256.814V244.191C429.643 244.013 429.55 243.747 429.375 243.747H427.969C427.791 243.747 427.393 244.013 427.393 244.191V256.813C427.393 257.787 426.512 258.756 424.865 257.933L421.823 256.18C421.717 256.123 421.643 256.007 421.643 255.885V243.099C421.643 242.979 421.781 242.858 421.888 242.796L432.994 236.406C433.098 236.347 433.251 236.347 433.354 236.406L444.324 242.795C444.429 242.858 444.392 242.975 444.392 243.099V255.885C444.392 256.007 444.438 256.126 444.335 256.184L433.313 262.578C433.219 262.635 433.101 262.635 432.997 262.578L430.171 260.891C430.085 260.842 429.984 260.824 429.903 260.87C429.116 261.315 428.971 261.375 428.233 261.63C428.052 261.694 427.784 261.803 428.336 262.112L432.035 264.301C432.389 264.506 432.792 264.612 433.197 264.612C433.608 264.612 434.009 264.506 434.364 264.301L445.335 257.906C446.052 257.487 446.393 256.715 446.393 255.885V243.099C446.393 242.27 446.053 241.496 445.335 241.081ZM436.62 253.859C433.689 253.859 433.043 253.05 432.828 251.592C432.803 251.435 432.669 251.247 432.509 251.247H431.077C430.9 251.247 430.757 251.463 430.757 251.639C430.757 253.506 431.772 255.767 436.62 255.767C440.13 255.767 442.143 254.403 442.143 251.99C442.143 249.597 440.525 248.969 437.122 248.518C433.681 248.063 433.332 247.834 433.332 247.028C433.332 246.363 433.628 245.477 436.175 245.477C438.452 245.477 439.291 245.966 439.636 247.5C439.665 247.644 439.797 247.747 439.946 247.747H441.384C441.473 247.747 441.557 247.712 441.619 247.648C441.679 247.58 441.711 247.495 441.703 247.404C441.48 244.762 439.725 243.531 436.175 243.531C433.017 243.531 431.133 244.864 431.133 247.099C431.133 249.524 433.008 250.194 436.039 250.494C439.665 250.849 439.947 251.379 439.947 252.092C439.947 253.331 438.953 253.859 436.62 253.859Z" fill="#83CD29"/>
<mask id="mask6_357_236" style="mask-type:luminance" maskUnits="userSpaceOnUse" x="346" y="254" width="33" height="33">
<path d="M378.857 254.069H346.857V286.069H378.857V254.069Z" fill="white"/>
</mask>
<g mask="url(#mask6_357_236)">
<path d="M347 254.212H378.714V285.926H347V254.212Z" fill="#212121" stroke="#F7FBFC" stroke-width="0.5"/>
<path fill-rule="evenodd" clip-rule="evenodd" d="M370.375 275.18C370.545 277.365 370.545 278.39 370.545 279.509H365.488C365.488 279.265 365.492 279.043 365.497 278.816C365.51 278.114 365.525 277.381 365.41 275.901C365.26 273.736 364.327 273.254 362.612 273.254H361.093H354.657V269.313H362.853C365.019 269.313 366.102 268.654 366.102 266.909C366.102 265.375 365.019 264.445 362.853 264.445H354.657V260.589H363.756C368.66 260.589 371.097 262.905 371.097 266.605C371.097 269.373 369.382 271.179 367.065 271.479C369.021 271.871 370.165 272.983 370.375 275.18Z" fill="white"/>
<path d="M354.657 279.509V276.571H360.005C360.898 276.571 361.093 277.234 361.093 277.629V279.509H354.657Z" fill="#111111"/>
<path d="M354.638 279.509V279.529H354.658H361.093H361.113V279.509V277.629C361.113 277.429 361.064 277.16 360.901 276.94C360.736 276.72 360.458 276.552 360.006 276.552H354.658H354.638V276.572V279.509Z" stroke="white" stroke-opacity="0.8"/>
</g>
<mask id="mask7_357_236" style="mask-type:luminance" maskUnits="userSpaceOnUse" x="254" y="249" width="33" height="33">
<path d="M286.284 249.498H254.284V281.498H286.284V249.498Z" fill="white"/>
</mask>
<g mask="url(#mask7_357_236)">
<path fill-rule="evenodd" clip-rule="evenodd" d="M255.484 249.498H285.084C285.747 249.498 286.284 250.035 286.284 250.698V280.298C286.284 280.961 285.747 281.498 285.084 281.498H255.484C254.821 281.498 254.284 280.961 254.284 280.298V250.698C254.284 250.035 254.821 249.498 255.484 249.498ZM272.073 266.523V263.898H260.684V266.523H264.75V278.208H267.987V266.523H272.073ZM273.363 277.9C273.885 278.165 274.502 278.365 275.215 278.499C275.928 278.631 276.679 278.698 277.469 278.698C278.238 278.698 278.969 278.625 279.662 278.479C280.354 278.332 280.962 278.091 281.484 277.755C282.006 277.419 282.419 276.98 282.724 276.437C283.028 275.895 283.18 275.225 283.18 274.427C283.18 273.848 283.093 273.341 282.919 272.905C282.745 272.469 282.494 272.081 282.166 271.742C281.838 271.403 281.445 271.099 280.987 270.829C280.528 270.56 280.012 270.305 279.436 270.065C279.014 269.892 278.636 269.724 278.302 269.561C277.967 269.399 277.682 269.232 277.449 269.063C277.214 268.893 277.034 268.713 276.906 268.524C276.78 268.334 276.716 268.119 276.716 267.88C276.716 267.66 276.773 267.463 276.886 267.286C277 267.11 277.161 266.959 277.368 266.832C277.576 266.705 277.83 266.608 278.131 266.537C278.432 266.468 278.767 266.433 279.135 266.433C279.402 266.433 279.685 266.453 279.983 266.493C280.281 266.533 280.58 266.594 280.881 266.677C281.182 266.76 281.476 266.865 281.76 266.992C282.044 267.118 282.307 267.264 282.548 267.431V264.447C282.059 264.261 281.525 264.123 280.946 264.033C280.368 263.943 279.704 263.898 278.954 263.898C278.192 263.898 277.469 263.98 276.786 264.143C276.104 264.305 275.503 264.56 274.984 264.906C274.466 265.252 274.056 265.693 273.754 266.228C273.453 266.764 273.303 267.404 273.303 268.149C273.303 269.101 273.579 269.912 274.131 270.584C274.683 271.256 275.521 271.825 276.645 272.291C277.087 272.471 277.498 272.647 277.88 272.82C278.262 272.993 278.591 273.173 278.869 273.359C279.146 273.545 279.366 273.748 279.526 273.968C279.687 274.187 279.768 274.437 279.768 274.716C279.768 274.923 279.717 275.113 279.617 275.29C279.516 275.466 279.364 275.619 279.16 275.749C278.956 275.879 278.702 275.98 278.397 276.053C278.093 276.127 277.736 276.163 277.328 276.163C276.632 276.163 275.943 276.042 275.26 275.799C274.578 275.556 273.945 275.192 273.363 274.706V277.9Z" fill="#3078C6"/>
<path d="M272.073 266.523V263.898H260.685V266.523H264.75V278.209H267.987V266.523H272.073Z" fill="#111111"/>
<path d="M273.364 277.9C273.886 278.166 274.503 278.366 275.216 278.499C275.929 278.632 276.68 278.698 277.469 278.698C278.239 278.698 278.97 278.625 279.663 278.479C280.355 278.333 280.963 278.092 281.484 277.756C282.007 277.42 282.42 276.98 282.724 276.438C283.029 275.896 283.181 275.225 283.181 274.427C283.181 273.848 283.094 273.341 282.92 272.905C282.746 272.469 282.495 272.082 282.167 271.742C281.839 271.403 281.446 271.099 280.988 270.829C280.529 270.56 280.012 270.305 279.437 270.066C279.015 269.893 278.637 269.725 278.303 269.562C277.968 269.399 277.683 269.233 277.449 269.063C277.215 268.893 277.035 268.714 276.907 268.524C276.78 268.334 276.716 268.12 276.716 267.88C276.716 267.661 276.773 267.463 276.887 267.286C277.001 267.11 277.161 266.959 277.369 266.833C277.576 266.706 277.831 266.608 278.132 266.538C278.433 266.468 278.768 266.433 279.136 266.433C279.403 266.433 279.686 266.453 279.984 266.493C280.281 266.533 280.581 266.594 280.882 266.678C281.183 266.761 281.476 266.866 281.76 266.992C282.045 267.118 282.308 267.265 282.548 267.431V264.448C282.06 264.261 281.526 264.123 280.947 264.033C280.369 263.944 279.704 263.898 278.955 263.898C278.192 263.898 277.469 263.98 276.787 264.143C276.104 264.306 275.504 264.561 274.985 264.906C274.467 265.252 274.056 265.693 273.755 266.229C273.454 266.764 273.304 267.405 273.304 268.15C273.304 269.101 273.58 269.913 274.132 270.585C274.684 271.257 275.522 271.826 276.646 272.292C277.088 272.471 277.499 272.648 277.881 272.82C278.263 272.993 278.592 273.173 278.869 273.359C279.147 273.545 279.367 273.748 279.527 273.968C279.688 274.188 279.768 274.437 279.768 274.717C279.768 274.923 279.718 275.114 279.617 275.29C279.517 275.466 279.365 275.62 279.161 275.749C278.957 275.879 278.703 275.981 278.398 276.054C278.093 276.127 277.737 276.164 277.329 276.164C276.633 276.164 275.944 276.042 275.261 275.8C274.579 275.557 273.946 275.192 273.364 274.706V277.9Z" fill="#111111"/>
</g>
<path fill-rule="evenodd" clip-rule="evenodd" d="M210.809 215.212L225.952 241.498H195.666L210.809 215.212Z" fill="url(#paint2_linear_357_236)"/>
<mask id="mask8_357_236" style="mask-type:luminance" maskUnits="userSpaceOnUse" x="614" y="124" width="33" height="33">
<path d="M646.759 124.354H614.855V156.354H646.759V124.354Z" fill="white"/>
</mask>
<g mask="url(#mask8_357_236)">
<path d="M619.09 124.395H642.564C644.873 124.395 646.758 126.27 646.758 128.59V152.073C646.758 154.384 644.884 156.269 642.564 156.269H619.09C616.781 156.269 614.896 154.393 614.896 152.073V128.58C614.896 126.27 616.77 124.395 619.09 124.395Z" fill="url(#paint3_linear_357_236)"/>
<path d="M631.193 132.447C626.227 132.447 622.193 136.479 622.193 141.458C622.193 146.436 626.227 150.458 631.193 150.458C636.164 150.458 640.193 146.427 640.193 141.448C640.193 136.469 636.17 132.447 631.193 132.447ZM631.193 147.799C627.696 147.799 624.85 144.957 624.85 141.458C624.85 137.958 627.696 135.115 631.193 135.115C634.696 135.115 637.536 137.958 637.536 141.458C637.536 144.957 634.701 147.799 631.193 147.799ZM631.193 136.411V141.138C631.193 141.274 631.341 141.37 631.467 141.303L635.661 139.127C635.759 139.079 635.787 138.963 635.736 138.867C634.867 137.339 633.256 136.295 631.387 136.227C631.29 136.227 631.193 136.304 631.193 136.411ZM625.319 132.94L624.764 132.389C624.221 131.848 623.353 131.848 622.81 132.389L622.153 133.047C621.616 133.588 621.616 134.458 622.153 134.999L622.696 135.541C622.781 135.628 622.907 135.608 622.987 135.522C623.307 135.086 623.656 134.671 624.039 134.284C624.439 133.888 624.844 133.539 625.284 133.22C625.381 133.163 625.393 133.027 625.319 132.94ZM634.141 131.51V130.417C634.141 129.653 633.524 129.034 632.759 129.034H629.541C628.776 129.034 628.159 129.653 628.159 130.417V131.538C628.159 131.664 628.273 131.751 628.399 131.722C629.301 131.461 630.244 131.326 631.204 131.326C632.124 131.326 633.033 131.451 633.913 131.693C634.027 131.722 634.141 131.635 634.141 131.51Z" fill="#111111"/>
</g>
<path d="M641.183 257.057C640.903 257.055 640.64 256.944 640.44 256.747C640.246 256.55 640.132 256.283 640.132 256.005C640.132 255.726 640.246 255.459 640.44 255.262C640.64 255.065 640.903 254.954 641.183 254.953C641.463 254.954 641.732 255.066 641.926 255.262C642.126 255.459 642.234 255.726 642.234 256.005C642.234 256.283 642.126 256.551 641.926 256.748C641.732 256.945 641.463 257.056 641.183 257.057ZM641.183 253.883C640.623 253.886 640.086 254.111 639.686 254.508C639.286 254.905 639.063 255.443 639.063 256.005V262.37C639.057 264.697 637.143 266.611 634.817 266.614C632.492 266.611 630.577 264.697 630.572 262.37V256.005C630.56 255.451 630.332 254.924 629.932 254.536C629.537 254.149 629.006 253.93 628.452 253.928C627.897 253.93 627.366 254.149 626.972 254.536C626.572 254.924 626.343 255.451 626.332 256.005V262.37C626.332 267.05 630.137 270.857 634.817 270.857C639.497 270.857 643.303 267.05 643.303 262.37V256.005C643.303 255.443 643.08 254.905 642.68 254.508C642.28 254.111 641.743 253.886 641.183 253.883ZM659.623 269.788H659.594C659.314 269.786 659.046 269.675 658.852 269.478C658.652 269.281 658.543 269.014 658.537 268.735C658.543 268.457 658.652 268.19 658.852 267.993C659.046 267.795 659.314 267.685 659.594 267.683H659.623C659.897 267.693 660.154 267.807 660.349 268.003C660.537 268.199 660.646 268.462 660.646 268.735C660.646 269.009 660.537 269.271 660.349 269.467C660.154 269.664 659.897 269.779 659.623 269.788ZM650.257 262.37L645.394 267.235C645.012 267.63 644.8 268.157 644.8 268.704C644.806 269.266 645.029 269.804 645.429 270.201C645.823 270.599 646.36 270.823 646.926 270.826C647.474 270.826 648 270.614 648.394 270.235L653.257 265.37L658.126 270.235C658.52 270.614 659.046 270.826 659.594 270.826C660.154 270.823 660.692 270.599 661.092 270.201C661.486 269.804 661.714 269.266 661.714 268.704C661.714 268.157 661.503 267.63 661.126 267.235L656.257 262.37L661.126 257.504C661.503 257.11 661.714 256.583 661.714 256.035C661.714 255.474 661.486 254.935 661.092 254.538C660.692 254.141 660.154 253.916 659.594 253.914C659.046 253.914 658.52 254.125 658.126 254.504L653.257 259.371L648.394 254.504C648 254.125 647.469 253.913 646.926 253.914C646.36 253.916 645.823 254.141 645.429 254.538C645.029 254.935 644.806 255.474 644.8 256.035C644.8 256.583 645.012 257.11 645.394 257.504L650.257 262.37ZM622.28 269.789C621.703 269.789 621.229 269.313 621.229 268.735C621.229 268.157 621.703 267.682 622.28 267.682C622.56 267.683 622.829 267.794 623.023 267.992C623.223 268.189 623.332 268.457 623.337 268.735C623.337 269.313 622.857 269.789 622.28 269.789ZM623.092 254.044C622.703 253.885 622.28 253.843 621.869 253.925C621.457 254.006 621.08 254.208 620.783 254.504L615.914 259.371L611.052 254.504C610.652 254.107 610.114 253.884 609.554 253.884C608.989 253.887 608.452 254.111 608.057 254.508C607.657 254.905 607.434 255.443 607.429 256.005V268.734V268.798C607.429 269.36 607.657 269.898 608.052 270.296C608.452 270.693 608.989 270.918 609.549 270.92C610.114 270.918 610.652 270.693 611.046 270.296C611.446 269.898 611.669 269.36 611.674 268.798L611.669 268.734V261.125L614.417 263.87C614.812 264.267 615.354 264.491 615.914 264.491C616.48 264.491 617.017 264.267 617.417 263.87L620.16 261.125V268.734V268.798C620.16 269.36 620.389 269.898 620.783 270.296C621.183 270.693 621.72 270.918 622.28 270.92C622.846 270.918 623.383 270.693 623.777 270.296C624.177 269.898 624.4 269.36 624.406 268.798L624.4 268.734V256.005C624.4 255.148 623.886 254.373 623.092 254.044Z" fill="white"/>
<path d="M618.286 168.354H253.714C246.14 168.354 240 174.495 240 182.069V218.64C240 226.214 246.14 232.354 253.714 232.354H618.286C625.86 232.354 632 226.214 632 218.64V182.069C632 174.495 625.86 168.354 618.286 168.354Z" fill="#111111" fill-opacity="0.01"/>
<mask id="mask9_357_236" style="mask-type:luminance" maskUnits="userSpaceOnUse" x="659" y="175" width="63" height="22">
<path d="M721.715 175.784H659.43V196.139H721.715V175.784Z" fill="white"/>
</mask>
<g mask="url(#mask9_357_236)">
<path d="M721.716 194.002C721.716 194.735 721.128 195.325 720.413 195.325H701.036C700.322 195.325 699.733 194.735 699.733 194.002V177.921C699.733 177.189 700.322 176.599 701.036 176.599H720.413C721.128 176.599 721.716 177.189 721.716 177.921V194.002Z" fill="#FF6633"/>
<path d="M721.716 194.002C721.716 194.735 721.128 195.325 720.413 195.325H701.036C700.322 195.325 699.733 194.735 699.733 194.002V177.921C699.733 177.189 700.322 176.599 701.036 176.599H720.413C721.128 176.599 721.716 177.189 721.716 177.921V194.002Z" fill="url(#paint4_linear_357_236)"/>
<path d="M703.561 192.638C702.824 192.638 702.258 192.048 702.258 191.315V180.751C702.258 180.018 702.846 179.428 703.561 179.428C704.269 179.428 704.864 180.018 704.864 180.751V191.315C704.881 192.048 704.292 192.638 703.561 192.638Z" fill="#F5F5F5"/>
<path d="M715.2 185.881L719.029 181.484C719.497 180.934 719.457 180.1 718.903 179.612C718.355 179.123 717.543 179.184 717.052 179.733L713.452 183.886L709.846 179.733C709.377 179.184 708.543 179.123 707.995 179.612C707.446 180.1 707.406 180.934 707.875 181.484L711.697 185.901L707.875 190.298C707.406 190.847 707.446 191.682 707.995 192.17C708.24 192.394 708.543 192.496 708.852 192.496C709.217 192.496 709.583 192.353 709.846 192.048L713.452 187.896L717.052 192.048C717.32 192.353 717.686 192.496 718.052 192.496C718.355 192.496 718.663 192.394 718.903 192.17C719.457 191.682 719.497 190.847 719.029 190.298L715.2 185.881Z" fill="#F5F5F5"/>
<path d="M661.058 189.218V182.705H659.43V180.669H663.093V189.218H664.721V191.254H659.43V189.218H661.058ZM663.093 177.005C663.093 177.677 662.544 178.227 661.87 178.227C661.201 178.227 660.653 177.677 660.653 177.005C660.653 176.334 661.201 175.784 661.87 175.784C662.544 175.784 663.093 176.334 663.093 177.005Z" fill="white"/>
<path d="M667.573 189.218V182.705H665.944V180.669H669.773V181.89C670.99 180.893 672.276 180.445 673.453 180.445C674.636 180.445 675.447 180.995 675.899 182.094C677.241 180.995 678.504 180.445 679.664 180.445C680.333 180.445 680.881 180.588 681.31 180.893C681.739 181.198 682.041 181.585 682.184 182.033C682.327 182.501 682.413 183.173 682.413 184.069V189.218H684.241V191.254H680.356V184.456C680.356 183.845 680.333 183.417 680.276 183.173C680.213 182.929 680.093 182.725 679.864 182.542C679.641 182.379 679.379 182.298 679.07 182.298C678.196 182.298 677.219 182.745 676.099 183.661V189.218H677.75V191.254H674.104V184.272C674.104 183.58 674.001 183.092 673.819 182.766C673.619 182.461 673.293 182.298 672.824 182.298C672.047 182.298 670.83 182.603 669.63 183.519V189.218H671.681V191.254H665.944V189.218H667.573Z" fill="white"/>
<path d="M697.286 180.67V182.705H695.538L695.521 190.318C695.521 191.377 695.458 192.17 695.355 192.679C695.252 193.188 694.989 193.717 694.584 194.246C694.172 194.775 693.566 195.223 692.732 195.59C691.915 195.956 690.978 196.139 689.984 196.139C688.458 196.139 687.092 195.671 685.892 194.735L687.212 193.229C688.109 193.941 689.086 194.287 690.144 194.287C690.732 194.287 691.264 194.165 691.772 193.941C692.281 193.717 692.647 193.432 692.892 193.106C693.138 192.781 693.298 192.475 693.361 192.17C693.441 191.885 693.464 191.377 693.464 190.685V189.727C693.138 190.135 692.629 190.542 691.955 190.908C691.264 191.275 690.509 191.458 689.698 191.458C688.212 191.458 686.989 190.929 686.052 189.89C685.115 188.853 684.646 187.55 684.646 186.023C684.646 184.354 685.155 183.01 686.195 181.973C687.235 180.934 688.412 180.426 689.778 180.426C691.144 180.426 692.527 181.158 693.607 182.278V180.649H697.286V180.67ZM686.829 186.003C686.829 187.061 687.132 187.937 687.744 188.629C688.355 189.3 689.126 189.646 690.086 189.646C691.018 189.646 691.812 189.3 692.486 188.629C693.155 187.957 693.504 187.082 693.504 186.003C693.504 184.924 693.155 184.049 692.486 183.397C691.812 182.746 691.041 182.42 690.144 182.42C689.246 182.42 688.475 182.746 687.824 183.397C687.172 184.008 686.829 184.903 686.829 186.003Z" fill="white"/>
</g>
</g>
</g>
</g>
<defs>
<filter id="filter0_f_357_236" x="-9.29785" y="4.91699" width="890.869" height="359.351" filterUnits="userSpaceOnUse" color-interpolation-filters="sRGB">
<feFlood flood-opacity="0" result="BackgroundImageFix"/>
<feBlend mode="normal" in="SourceGraphic" in2="BackgroundImageFix" result="shape"/>
<feGaussianBlur stdDeviation="4" result="effect1_foregroundBlur_357_236"/>
</filter>
<radialGradient id="paint0_radial_357_236" cx="0" cy="0" r="1" gradientUnits="userSpaceOnUse" gradientTransform="translate(435.713 183.212) rotate(-180) scale(436.286 182.286)">
<stop offset="0.796875" stop-color="white"/>
<stop offset="1" stop-color="white" stop-opacity="0"/>
</radialGradient>
<linearGradient id="paint1_linear_357_236" x1="872.571" y1="7.78313" x2="-10.8574" y2="301.498" gradientUnits="userSpaceOnUse">
<stop stop-color="#005CC5"/>
<stop offset="1" stop-color="#29ABE2"/>
</linearGradient>
<linearGradient id="paint2_linear_357_236" x1="226.233" y1="262.863" x2="211.476" y2="239.502" gradientUnits="userSpaceOnUse">
<stop stop-color="white"/>
<stop offset="1" stop-color="white"/>
</linearGradient>
<linearGradient id="paint3_linear_357_236" x1="602.867" y1="167.404" x2="656.41" y2="115.58" gradientUnits="userSpaceOnUse">
<stop stop-color="#00AEFF"/>
<stop offset="1" stop-color="#3369E7"/>
</linearGradient>
<linearGradient id="paint4_linear_357_236" x1="710.722" y1="195.325" x2="710.722" y2="176.599" gradientUnits="userSpaceOnUse">
<stop stop-color="#D84A2E"/>
<stop offset="1" stop-color="#FF6633"/>
</linearGradient>
</defs>
</svg>
