<svg width="40" height="40" viewBox="0 0 40 40" fill="none" xmlns="http://www.w3.org/2000/svg">
<g id="&#240;&#159;&#166;&#134; icon &#34;bar chart&#34;">
<path id="Vector" d="M0 4.38889C0 3.22488 0.462399 2.10855 1.28548 1.28548C2.10855 0.462399 3.22488 0 4.38889 0H35.1111C36.2751 0 37.3914 0.462399 38.2145 1.28548C39.0376 2.10855 39.5 3.22488 39.5 4.38889V35.1111C39.5 36.2751 39.0376 37.3914 38.2145 38.2145C37.3914 39.0376 36.2751 39.5 35.1111 39.5H4.38889C3.22488 39.5 2.10855 39.0376 1.28548 38.2145C0.462399 37.3914 0 36.2751 0 35.1111V4.38889ZM35.1111 4.38889H4.38889V35.1111H35.1111V4.38889ZM19.75 8.77778C20.332 8.77778 20.8902 9.00898 21.3017 9.42052C21.7132 9.83205 21.9444 10.3902 21.9444 10.9722V28.5278C21.9444 29.1098 21.7132 29.6679 21.3017 30.0795C20.8902 30.491 20.332 30.7222 19.75 30.7222C19.168 30.7222 18.6098 30.491 18.1983 30.0795C17.7868 29.6679 17.5556 29.1098 17.5556 28.5278V10.9722C17.5556 10.3902 17.7868 9.83205 18.1983 9.42052C18.6098 9.00898 19.168 8.77778 19.75 8.77778ZM28.5278 13.1667C29.1098 13.1667 29.6679 13.3979 30.0795 13.8094C30.491 14.2209 30.7222 14.7791 30.7222 15.3611V28.5278C30.7222 29.1098 30.491 29.6679 30.0795 30.0795C29.6679 30.491 29.1098 30.7222 28.5278 30.7222C27.9458 30.7222 27.3876 30.491 26.9761 30.0795C26.5645 29.6679 26.3333 29.1098 26.3333 28.5278V15.3611C26.3333 14.7791 26.5645 14.2209 26.9761 13.8094C27.3876 13.3979 27.9458 13.1667 28.5278 13.1667ZM10.9722 17.5556C11.5542 17.5556 12.1124 17.7868 12.5239 18.1983C12.9355 18.6098 13.1667 19.168 13.1667 19.75V28.5278C13.1667 29.1098 12.9355 29.6679 12.5239 30.0795C12.1124 30.491 11.5542 30.7222 10.9722 30.7222C10.3902 30.7222 9.83205 30.491 9.42052 30.0795C9.00898 29.6679 8.77778 29.1098 8.77778 28.5278V19.75C8.77778 19.168 9.00898 18.6098 9.42052 18.1983C9.83205 17.7868 10.3902 17.5556 10.9722 17.5556Z" fill="url(#paint0_linear_90_3015)"/>
</g>
<defs>
<linearGradient id="paint0_linear_90_3015" x1="19.75" y1="0" x2="19.75" y2="39.5" gradientUnits="userSpaceOnUse">
<stop stop-color="#ED1AFF"/>
<stop offset="1" stop-color="#FFD02C" stop-opacity="0.92"/>
</linearGradient>
</defs>
</svg>
