<svg width="40" height="32" viewBox="0 0 40 32" fill="none" xmlns="http://www.w3.org/2000/svg">
<g id="&#240;&#159;&#166;&#134; icon &#34;camera&#34;">
<path id="Vector" d="M12.4287 0.578675C12.799 0.208265 13.3012 0.000111859 13.825 0H25.675C26.1988 0.000111859 26.701 0.208265 27.0713 0.578675L30.4426 3.95H35.55C36.5976 3.95 37.6023 4.36616 38.3431 5.10693C39.0838 5.8477 39.5 6.85239 39.5 7.9V27.65C39.5 28.6976 39.0838 29.7023 38.3431 30.4431C37.6023 31.1838 36.5976 31.6 35.55 31.6H3.95C2.90239 31.6 1.8977 31.1838 1.15693 30.4431C0.416159 29.7023 0 28.6976 0 27.65V7.9C0 6.85239 0.416159 5.8477 1.15693 5.10693C1.8977 4.36616 2.90239 3.95 3.95 3.95H9.05735L12.4287 0.578675ZM14.6426 3.95L11.2713 7.32132C10.901 7.69173 10.3988 7.89989 9.875 7.9H3.95V27.65H35.55V7.9H29.625C29.1012 7.89989 28.599 7.69173 28.2287 7.32132L24.8574 3.95H14.6426ZM19.75 12.8375C18.7024 12.8375 17.6977 13.2537 16.9569 13.9944C16.2162 14.7352 15.8 15.7399 15.8 16.7875C15.8 17.8351 16.2162 18.8398 16.9569 19.5806C17.6977 20.3213 18.7024 20.7375 19.75 20.7375C20.7976 20.7375 21.8023 20.3213 22.5431 19.5806C23.2838 18.8398 23.7 17.8351 23.7 16.7875C23.7 15.7399 23.2838 14.7352 22.5431 13.9944C21.8023 13.2537 20.7976 12.8375 19.75 12.8375ZM11.85 16.7875C11.85 14.6923 12.6823 12.6829 14.1639 11.2014C15.6454 9.71982 17.6548 8.8875 19.75 8.8875C21.8452 8.8875 23.8546 9.71982 25.3361 11.2014C26.8177 12.6829 27.65 14.6923 27.65 16.7875C27.65 18.8827 26.8177 20.8921 25.3361 22.3736C23.8546 23.8552 21.8452 24.6875 19.75 24.6875C17.6548 24.6875 15.6454 23.8552 14.1639 22.3736C12.6823 20.8921 11.85 18.8827 11.85 16.7875Z" fill="url(#paint0_linear_90_3019)"/>
</g>
<defs>
<linearGradient id="paint0_linear_90_3019" x1="19.75" y1="0" x2="19.75" y2="31.6" gradientUnits="userSpaceOnUse">
<stop stop-color="#ED1AFF"/>
<stop offset="1" stop-color="#FFD02C" stop-opacity="0.92"/>
</linearGradient>
</defs>
</svg>
