<svg width="40" height="24" viewBox="0 0 40 24" fill="none" xmlns="http://www.w3.org/2000/svg">
<g id="&#240;&#159;&#166;&#134; icon &#34;link&#34;">
<path id="Vector" d="M11.85 3.95C7.4102 3.95 3.95 7.4102 3.95 11.85C3.95 16.2898 7.4102 19.75 11.85 19.75H15.8C16.3238 19.75 16.8262 19.9581 17.1965 20.3285C17.5669 20.6988 17.775 21.2012 17.775 21.725C17.775 22.2488 17.5669 22.7512 17.1965 23.1215C16.8262 23.4919 16.3238 23.7 15.8 23.7H11.85C5.2298 23.7 0 18.4702 0 11.85C0 5.2298 5.2298 0 11.85 0H15.8C16.3238 0 16.8262 0.20808 17.1965 0.578464C17.5669 0.948849 17.775 1.4512 17.775 1.975C17.775 2.4988 17.5669 3.00115 17.1965 3.37154C16.8262 3.74192 16.3238 3.95 15.8 3.95H11.85ZM21.725 1.975C21.725 1.4512 21.9331 0.948849 22.3035 0.578464C22.6738 0.20808 23.1762 0 23.7 0H27.65C34.2702 0 39.5 5.2298 39.5 11.85C39.5 18.4702 34.2702 23.7 27.65 23.7H23.7C23.1762 23.7 22.6738 23.4919 22.3035 23.1215C21.9331 22.7512 21.725 22.2488 21.725 21.725C21.725 21.2012 21.9331 20.6988 22.3035 20.3285C22.6738 19.9581 23.1762 19.75 23.7 19.75H27.65C32.0898 19.75 35.55 16.2898 35.55 11.85C35.55 7.4102 32.0898 3.95 27.65 3.95H23.7C23.1762 3.95 22.6738 3.74192 22.3035 3.37154C21.9331 3.00115 21.725 2.4988 21.725 1.975ZM9.875 11.85C9.875 11.3262 10.0831 10.8238 10.4535 10.4535C10.8238 10.0831 11.3262 9.875 11.85 9.875H27.65C28.1738 9.875 28.6762 10.0831 29.0465 10.4535C29.4169 10.8238 29.625 11.3262 29.625 11.85C29.625 12.3738 29.4169 12.8762 29.0465 13.2465C28.6762 13.6169 28.1738 13.825 27.65 13.825H11.85C11.3262 13.825 10.8238 13.6169 10.4535 13.2465C10.0831 12.8762 9.875 12.3738 9.875 11.85Z" fill="url(#paint0_linear_90_3013)"/>
</g>
<defs>
<linearGradient id="paint0_linear_90_3013" x1="19.75" y1="0" x2="19.75" y2="23.7" gradientUnits="userSpaceOnUse">
<stop stop-color="#ED1AFF"/>
<stop offset="1" stop-color="#FFD02C" stop-opacity="0.92"/>
</linearGradient>
</defs>
</svg>
